<svg style="position: absolute; width: 0; height: 0;" width="0" height="0" version="1.1" xmlns="http://www.w3.org/2000/svg" xmlns:xlink="http://www.w3.org/1999/xlink">
<defs>
<symbol id="icon-contactio-logo" viewBox="0 0 1024 1024">
	<title>contactio-logo</title>
	<path class="path1" d="M682 554q56 0 122 16t122 52 56 82v106h-256v-106q0-88-84-148 14-2 40-2zM342 554q56 0 122 16t121 52 55 82v106h-598v-106q0-46 56-82t122-52 122-16zM342 470q-52 0-90-38t-38-90 38-90 90-38 89 38 37 90-37 90-89 38zM682 470q-52 0-90-38t-38-90 38-90 90-38 90 38 38 90-38 90-90 38z"></path>
</symbol>
</defs>
</svg>
